<?xml version="1.0" encoding="UTF-8" standalone="no"?>
<!-- Created with Inkscape (http://www.inkscape.org/) -->

<svg
   xmlns:dc="http://purl.org/dc/elements/1.1/"
   xmlns:cc="http://creativecommons.org/ns#"
   xmlns:rdf="http://www.w3.org/1999/02/22-rdf-syntax-ns#"
   xmlns:svg="http://www.w3.org/2000/svg"
   xmlns="http://www.w3.org/2000/svg"
   xmlns:sodipodi="http://sodipodi.sourceforge.net/DTD/sodipodi-0.dtd"
   xmlns:inkscape="http://www.inkscape.org/namespaces/inkscape"
   width="744.09448819"
   height="1052.3622047"
   id="svg2"
   version="1.1"
   inkscape:version="0.48.4 r9939"
   sodipodi:docname="New document 1">
  <defs
     id="defs4" />
  <sodipodi:namedview
     id="base"
     pagecolor="#ffffff"
     bordercolor="#666666"
     borderopacity="1.0"
     inkscape:pageopacity="0.0"
     inkscape:pageshadow="2"
     inkscape:zoom="0.35"
     inkscape:cx="380.71429"
     inkscape:cy="514.28571"
     inkscape:document-units="px"
     inkscape:current-layer="layer1"
     showgrid="false"
     inkscape:window-width="1600"
     inkscape:window-height="841"
     inkscape:window-x="0"
     inkscape:window-y="27"
     inkscape:window-maximized="1" />
  <metadata
     id="metadata7">
    <rdf:RDF>
      <cc:Work
         rdf:about="">
        <dc:format>image/svg+xml</dc:format>
        <dc:type
           rdf:resource="http://purl.org/dc/dcmitype/StillImage" />
        <dc:title></dc:title>
      </cc:Work>
    </rdf:RDF>
  </metadata>
  <g
     inkscape:label="Layer 1"
     inkscape:groupmode="layer"
     id="layer1">
    <text
       xml:space="preserve"
       style="font-size:40px;font-style:normal;font-weight:normal;line-height:125%;letter-spacing:0px;word-spacing:0px;fill:#000000;fill-opacity:1;stroke:none;font-family:Sans"
       x="13.934937"
       y="237.24567"
       id="text2985"
       sodipodi:linespacing="125%"
       transform="matrix(0.9478143,-0.31882292,0.31882292,0.9478143,0,0)"><tspan
         sodipodi:role="line"
         id="tspan2987"
         x="13.934937"
         y="237.24567"
         style="font-size:72px;fill:#d40000" /></text>
    <path
       sodipodi:type="arc"
       style="fill:#d40000;fill-opacity:1;stroke:#000000;stroke-opacity:1"
       id="path2997"
       sodipodi:cx="227.14285"
       sodipodi:cy="410.93362"
       sodipodi:rx="104.28571"
       sodipodi:ry="104.28571"
       d="m 331.42857,410.93362 a 104.28571,104.28571 0 1 1 -208.57143,0 104.28571,104.28571 0 1 1 208.57143,0 z"
       inkscape:export-filename="/home/cheese/Documents/projects/make-it-rain-eclipse/make-it-rain/res/images/player.png"
       inkscape:export-xdpi="27.481735"
       inkscape:export-ydpi="27.481735" />
    <path
       style="fill:#000000;fill-opacity:1;stroke:#000000;stroke-opacity:1"
       id="path3033"
       d="m 170.53561,310.95336 c 0.89484,8.18082 2.5023,16.35662 4.41791,24.36542 1.37228,6.91123 3.56192,13.61196 5.10849,20.47939 0.92105,5.24704 2.69208,10.25663 3.60996,15.50987 1.00923,6.59247 0.48162,13.28525 1.13959,19.90186 0,0 -37.47622,19.62927 -37.47622,19.62927 l 0,0 c -0.8151,-6.52402 -0.28743,-13.13196 -1.15348,-19.66344 -0.77698,-5.22983 -2.56327,-10.17037 -3.417,-15.37304 -1.38983,-6.88072 -3.62591,-13.5408 -4.96531,-20.43483 -1.96705,-8.13824 -3.31412,-16.46515 -4.79449,-24.70007 0,0 37.53055,-19.71443 37.53055,-19.71443 z"
       inkscape:connector-curvature="0" />
    <path
       style="fill:#000000;fill-opacity:1;stroke:#000000;stroke-opacity:1"
       id="path3035"
       d="m 256.03085,299.75809 c -0.37308,10.34047 1.14392,20.63645 2.50945,30.85867 1.72107,10.01755 3.86697,19.94887 5.15906,30.0359 0.40411,5.72608 2.13162,11.21092 2.88282,16.88848 0.5282,4.45725 0.61409,8.94556 0.72492,13.42703 0,0 -37.60645,19.27135 -37.60645,19.27135 l 0,0 c -0.0936,-4.33277 -0.19567,-8.67062 -0.62505,-12.98619 -0.69622,-5.72413 -2.45221,-11.24822 -2.76185,-17.01447 -1.00746,-10.1256 -2.85252,-20.12317 -4.80027,-30.1058 -1.49753,-10.32316 -2.9782,-20.68567 -3.25862,-31.12714 0,0 37.77599,-19.24783 37.77599,-19.24783 z"
       inkscape:connector-curvature="0" />
    <path
       style="fill:#000000;fill-opacity:1;stroke:#000000;stroke-opacity:1"
       id="path3053"
       d="m 168.49366,410.85764 c 5.77193,5.66653 13.22367,8.79192 20.16256,12.669 5.29695,3.21406 11.13567,4.37894 17.21507,4.82088 6.37888,0.5446 12.81935,-0.28665 19.14003,0.74274 6.41795,1.25346 12.94493,1.74342 19.4658,2.05416 6.17225,0.78678 12.04802,-0.30536 18.08276,-1.36432 5.24931,-0.45386 10.25867,-2.06425 15.22498,-3.77998 13.54079,-5.44049 33.12321,-17.81467 -26.41862,15.81957 -5.96733,3.37085 5.9091,-3.8165 7.95642,-5.3797 4.88354,-3.05329 8.17114,-7.67741 11.79448,-12.00384 10.18404,-13.05467 32.97727,-38.64068 45.09469,-23.01228 2.24141,3.95441 3.70125,8.09865 4.57172,12.5481 1.54382,4.64276 2.62101,9.35615 3.22596,14.20816 1.0004,6.44969 -0.33482,12.83586 -1.08043,19.22939 -0.79315,7.50799 -2.80396,14.68193 -5.67736,21.63175 -2.08509,5.11257 -5.31525,9.48704 -8.85895,13.6548 -14.13687,13.83995 -33.61103,21.85075 -50.27172,31.31775 -3.48473,2.32265 -7.62932,2.79853 -11.49787,4.02651 -1.65323,0.52478 -3.20108,1.34011 -4.8302,1.93553 -5.29215,1.86711 -10.47723,1.7322 -15.90032,0.83937 -5.74142,-1.936 -11.63021,-3.39942 -16.99755,-6.26219 -4.30328,-2.23683 -8.89436,-4.01636 -13.0168,-6.56861 -4.12066,-1.67966 -7.78017,-4.21412 -11.74027,-6.22663 -5.69815,-2.22563 -11.0864,-5.14032 -16.51825,-7.93354 -3.4775,-1.45704 -1.72926,-0.82211 -5.24022,-1.91711 0,0 35.1164,-23.71986 35.1164,-23.71986 l 0,0 c 3.72329,1.48334 1.87879,0.67401 5.53157,2.43237 5.4246,2.88486 11.02304,5.37569 16.6242,7.89511 3.91931,2.16383 7.84916,4.29158 11.8465,6.30366 4.24821,2.16796 8.48052,4.35724 12.7871,6.40872 5.17801,2.2855 10.64881,4.01079 16.20441,5.08478 5.08055,0.38252 10.00329,-0.56928 14.7412,-2.45324 5.39582,-1.93877 11.00292,-3.30553 15.99365,-6.26345 -62.97882,36.61632 -34.52086,21.96566 -22.04662,11.3455 4.03517,-3.40161 6.98202,-7.65725 9.63129,-12.19711 2.83226,-6.6642 5.65956,-13.25279 6.30035,-20.58018 0.62265,-6.09385 1.97013,-12.1732 1.32373,-18.29793 -0.48804,-4.78024 -1.43462,-9.43119 -3.11795,-13.94872 -0.60977,-3.69762 -1.65653,-7.09476 -3.54481,-10.34988 -0.0917,0.005 -0.18329,0.01 -0.27494,0.0144 -0.11746,0.21157 -0.23493,0.42314 -0.3524,0.6347 11.85456,-6.84164 23.70912,-13.68328 35.56368,-20.52493 0.40681,-0.23921 -0.965,0.14439 -1.35514,0.40992 -0.5981,0.40706 -1.06203,0.98901 -1.52147,1.54788 -0.60401,0.73472 -1.10622,1.54752 -1.65933,2.32127 -3.92202,4.22515 -6.77918,9.3671 -11.48444,12.82171 -16.84108,12.33714 -34.41911,24.46829 -54.40705,31.15058 -5.13306,1.47263 -10.24692,2.78771 -15.58356,3.30822 -6.17937,0.98054 -12.35804,1.13159 -18.59935,0.56283 -6.56822,-0.46536 -13.09821,-1.23795 -19.61068,-2.21064 -6.36902,-0.32751 -12.76682,-0.0429 -19.1192,-0.73923 -6.44496,-0.88415 -12.50725,-2.80929 -18.06615,-6.2875 -7.10029,-3.8976 -14.27116,-7.6319 -20.5502,-12.83239 0,0 35.7433,-22.88605 35.7433,-22.88605 z"
       inkscape:connector-curvature="0"
       inkscape:export-xdpi="90"
       inkscape:export-ydpi="90"
       inkscape:export-filename="/home/cheese/Documents/projects/make-it-rain-eclipse/make-it-rain/res/images/player.png" />
  </g>
</svg>
